# xmcd CD database file
#
# Track frame offsets:
#	150
#	30807
#	52892
#	72445
#	85635
#	108990
#
# Disc length: 1933 seconds
#
# Revision: 0
# Processed by: cddbd v1.5.1PL2 Copyright (c) Steve Scherf et al.
# Submitted via: CDex 1.51
#
DISCID=3b078b06
DTITLE=nil - さよならダヴィンチ
DYEAR=1900
DGENRE=Rock
TTITLE0=さよならダヴィンチ
TTITLE1=サマタイムクルーズ
TTITLE2=ロマン・スカー
TTITLE3=The end is near ! The end is near !
TTITLE4=モナリザ
TTITLE5=n.i.l.
EXTD=
EXTT0=
EXTT1=
EXTT2=
EXTT3=
EXTT4=
EXTT5=
PLAYORDER=
